<svg width="320" height="96" viewBox="0 0 320 96" fill="none" xmlns="http://www.w3.org/2000/svg">
  <defs>
    <linearGradient id="so-grad" x1="24" y1="16" x2="288" y2="80" gradientUnits="userSpaceOnUse">
      <stop offset="0" stop-color="#F9FDFF"/>
      <stop offset="0.45" stop-color="#87B6FF"/>
      <stop offset="1" stop-color="#2D5BFF"/>
    </linearGradient>
  </defs>
  <rect x="4" y="8" width="312" height="80" rx="28" fill="rgba(255,255,255,0.14)" stroke="rgba(255,255,255,0.28)"/>
  <path d="M50.554 66.108C40.114 66.108 32.914 60.492 31.91 52.896H42.53C43.39 55.908 46.33 57.596 50.59 57.596C54.958 57.596 57.43 56.124 57.43 53.868C57.43 51.72 55.526 50.68 49.37 49.712C37.606 47.88 33.49 44.796 33.49 37.236C33.49 28.94 40.474 23.36 50.806 23.36C61.246 23.36 68.122 28.724 69.054 36.356H58.542C57.754 33.416 55.282 31.872 50.842 31.872C46.726 31.872 44.47 33.236 44.47 35.42C44.47 37.46 46.374 38.5 52.242 39.432C64.474 41.372 68.662 44.384 68.662 52.176C68.662 60.708 61.534 66.108 50.554 66.108Z" fill="url(#so-grad)"/>
  <path d="M98.0466 66.108C84.5146 66.108 75.1386 57.02 75.1386 44.708C75.1386 32.432 84.5146 23.36 98.0466 23.36C111.615 23.36 120.955 32.432 120.955 44.708C120.955 57.02 111.615 66.108 98.0466 66.108ZM98.0466 57.164C105.387 57.164 109.939 52.032 109.939 44.708C109.939 37.42 105.387 32.304 98.0466 32.304C90.7426 32.304 86.1546 37.42 86.1546 44.708C86.1546 52.032 90.7426 57.164 98.0466 57.164Z" fill="url(#so-grad)"/>
  <path d="M142.54 65.14L128.252 24.328H139.124L147.456 51.504L156.292 24.328H165.524L174.036 51.504L182.44 24.328H192.952L178.556 65.14H169.252L160.696 38.896L151.932 65.14H142.54Z" fill="url(#so-grad)"/>
  <path d="M223.825 65.14V48.74H207.749V65.14H196.877V24.328H207.749V40.048H223.825V24.328H234.697V65.14H223.825Z" fill="url(#so-grad)"/>
  <path d="M258.324 66.108C249.488 66.108 243.656 61.38 243.656 53.892C243.656 46.692 249.308 42.612 259.964 41.824L272.16 40.928V39.204C272.16 34.98 269.652 32.664 264.988 32.664C260.584 32.664 257.86 34.728 257.072 38.04H247.264C248.124 29.78 255 23.648 265.384 23.648C276.436 23.648 282.78 29.348 282.78 38.792V65.14H272.448V58.948H272.232C269.724 63.1 264.952 66.108 258.324 66.108ZM261.768 58.336C267.132 58.336 272.16 54.656 272.16 49.416V47.512L261.444 48.344C256.708 48.74 254.344 50.464 254.344 53.476C254.344 56.632 257.072 58.336 261.768 58.336Z" fill="url(#so-grad)"/>
  <path d="M299.198 35.2H289.102V24.328H320.318V35.2H310.07V65.14H299.198V35.2Z" fill="url(#so-grad)"/>
  <path d="M292.418 30.838C292.418 25.7534 296.54 21.632 301.624 21.632C306.709 21.632 310.83 25.7534 310.83 30.838C310.83 35.9226 306.709 40.044 301.624 40.044C296.54 40.044 292.418 35.9226 292.418 30.838Z" fill="#081B44" fill-opacity="0.26"/>
  <path d="M299.764 50.276C299.764 48.2396 301.415 46.588 303.452 46.588C305.488 46.588 307.14 48.2396 307.14 50.276C307.14 52.3124 305.488 53.964 303.452 53.964C301.415 53.964 299.764 52.3124 299.764 50.276Z" fill="#B2CCFF"/>
</svg>
